# xmcd CD database file
#
# Track frame offsets:
#	150
#	17673
#	35083
#	53425
#	70245
#	90275
#	104895
#	126645
#	143588
#	165720
#	177600
#
# Disc length: 2579 seconds
#
# Revision: 9
# Processed by: cddbd v1.5.2PL0 Copyright (c) Steve Scherf et al.
# Submitted via: CDex 1.51
#
DISCID=9a0a110b
DTITLE=Bonnie Raitt - Nick of Time
DYEAR=1989
DGENRE=Country
TTITLE0=Nick of Time
TTITLE1=Thing Called Love
TTITLE2=Love Letter
TTITLE3=Cry on My Shoulder
TTITLE4=Real Man
TTITLE5=Nobody's Girl
TTITLE6=Have a Heart
TTITLE7=Too Soon to Tell
TTITLE8=I Will Not Be Denied
TTITLE9=I Ain't Gonna Let You Break My Heart Again
TTITLE10=The Road's My Middle Name
EXTD=YEAR: 1989
EXTT0=
EXTT1=
EXTT2=
EXTT3=
EXTT4=
EXTT5=
EXTT6=
EXTT7=
EXTT8=
EXTT9=
EXTT10=
PLAYORDER=
